<svg id="Layer_1" data-name="Layer 1" xmlns="http://www.w3.org/2000/svg" viewBox="0 0 75.95 77.43"><defs><style>.cls-1{fill:#fff;}.cls-2{fill:#2e2ebc;}.cls-3,.cls-6,.cls-9{fill:#1010b2;}.cls-4{fill:#d93030;}.cls-5{fill:#d43636;}.cls-6{font-size:11px;font-family:NuevaStd-Bold, Nueva Std;font-weight:700;}.cls-7{letter-spacing:-0.02em;}.cls-8{letter-spacing:-0.01em;}.cls-9{font-size:8px;font-family:BookAntiqua, Book Antiqua;}</style></defs><title>logo</title><ellipse class="cls-1" cx="38.04" cy="38.6" rx="37" ry="37.5"/><path class="cls-2" d="M115.33,57.5c.09.12.29,0,.23-.28l-.34-.24Z" transform="translate(-40.96 -18.9)"/><path class="cls-2" d="M115.83,55.22c-.18-.39-.48-.82-.77-.54.34.36.21.47.61.87,0,.33-.08.59-.2.54.09.11,0,.52.17.69a1.84,1.84,0,0,0,0-1.57C115.68,55.08,115.77,55.2,115.83,55.22Z" transform="translate(-40.96 -18.9)"/><path class="cls-2" d="M100.8,26.67l.15.16A1.1,1.1,0,0,0,100.8,26.67Z" transform="translate(-40.96 -18.9)"/><path class="cls-2" d="M81.51,19.48c.16,0,.23,0,.24-.06C81.6,19.44,81.48,19.45,81.51,19.48Z" transform="translate(-40.96 -18.9)"/><path class="cls-2" d="M77.93,19l.22,0A.35.35,0,0,0,77.93,19Z" transform="translate(-40.96 -18.9)"/><path class="cls-2" d="M100.8,26.67l-.38-.42C100.32,26.31,100.6,26.48,100.8,26.67Z" transform="translate(-40.96 -18.9)"/><path class="cls-2" d="M114.52,50.83a.85.85,0,0,0,.13.27l-.07-.26Z" transform="translate(-40.96 -18.9)"/><path class="cls-2" d="M107.71,32.72l.11.13.2,0Z" transform="translate(-40.96 -18.9)"/><path class="cls-2" d="M111.78,38.52c-.07-.15-.34-.06-.48-.05a.53.53,0,0,1,.35.21A.45.45,0,0,0,111.78,38.52Z" transform="translate(-40.96 -18.9)"/><path class="cls-2" d="M115.33,49.09l.09.18Z" transform="translate(-40.96 -18.9)"/><path class="cls-2" d="M104.22,29a.18.18,0,0,0,0-.12A.15.15,0,0,0,104.22,29Z" transform="translate(-40.96 -18.9)"/><path class="cls-2" d="M113.85,65.23h0S113.86,65.18,113.85,65.23Z" transform="translate(-40.96 -18.9)"/><path class="cls-2" d="M116.07,57.5v.11l.16,0Z" transform="translate(-40.96 -18.9)"/><path class="cls-2" d="M71.31,19.41h0C71.51,19.36,71.41,19.38,71.31,19.41Z" transform="translate(-40.96 -18.9)"/><path class="cls-2" d="M41.7,65.62c.07-.71.58,1,.61,0C42.22,65.7,41.65,64.76,41.7,65.62Z" transform="translate(-40.96 -18.9)"/><path class="cls-2" d="M114.53,50.65l0-.28A1.31,1.31,0,0,0,114.53,50.65Z" transform="translate(-40.96 -18.9)"/><path class="cls-2" d="M42.31,65.58h0v0Z" transform="translate(-40.96 -18.9)"/><path class="cls-2" d="M57.4,25.59a.39.39,0,0,0,.19,0S57.52,25.57,57.4,25.59Z" transform="translate(-40.96 -18.9)"/><path class="cls-2" d="M67.69,21l-.27.06Z" transform="translate(-40.96 -18.9)"/><path class="cls-2" d="M53.12,29.63a.87.87,0,0,0-.32.27l.07,0A.49.49,0,0,1,53.12,29.63Z" transform="translate(-40.96 -18.9)"/><path class="cls-2" d="M49.07,34.17l.11-.06.1-.16Z" transform="translate(-40.96 -18.9)"/><path class="cls-2" d="M106.39,80.88a.82.82,0,0,1,.37,0C106.55,80.78,107,80.08,106.39,80.88Z" transform="translate(-40.96 -18.9)"/><path class="cls-2" d="M114.68,50.8a.19.19,0,0,1-.15-.15l0,.19S114.66,50.85,114.68,50.8Z" transform="translate(-40.96 -18.9)"/><path class="cls-2" d="M54.47,31.4l-.69.59C54,31.83,54.24,31.62,54.47,31.4Z" transform="translate(-40.96 -18.9)"/><path class="cls-2" d="M69,92.4l.21,0A.53.53,0,0,0,69,92.4Z" transform="translate(-40.96 -18.9)"/><path class="cls-2" d="M52,34a1.77,1.77,0,0,0-.49.26.5.5,0,0,0,0,.12Z" transform="translate(-40.96 -18.9)"/><path class="cls-2" d="M106.77,80.84h0Z" transform="translate(-40.96 -18.9)"/><path class="cls-2" d="M109.61,75.49c-.46.73.1.53.19.79-.45,1-.48.28-.83.48-.24.61-.21,1.23-.53,1.6-.07,0-.15.06-.14-.07-.17.72-1.2,1.65-1.39,2.53a.27.27,0,0,1-.14,0,.66.66,0,0,1,.47.23c-.26.3-.32.7-.6.66.17-.18.11-.26.13-.39l-.2.38c-.52,0,.29-.51.09-.67a10.25,10.25,0,0,1-1.36,2c-.33-.14.88-1.16.11-.75l.73-.62c-.89.19.42-.41-.46-.29-.91.85-.78,1.18-1.73,2-.07.32.27.13.19.46-1.09,1.46-1.6.32-2.26,1.53-.09.41.05.8-.83,1.2l0-.5c-1,.7-.22.86-1.39,1.42.09-.26.68-.68.51-.6-.83.25-.33.52-.84.91l-.3-.2c-.53.37-1.07.78-1.62,1.21A11.39,11.39,0,0,1,95.68,90c0-.12.19-.32-.16-.27A17.79,17.79,0,0,1,93,91c-.91.29-1.84.51-2.68.72l-.52.51c-.15.05-.31,0-.17-.14-.68.07,0,.19-.26.38s-.54,0-.33-.18a20.06,20.06,0,0,1-2.15.9l-.62.19-.62.1a6,6,0,0,1-1.1,0l.23-.12c-1,0-1,.76-2,.63l.17-.08-3.26.17c-.26,0-.52,0-.78,0s-.5,0-.75-.08a7.25,7.25,0,0,1-1.33-.28c-.16.2-.69.13-1.19.08s-1-.17-1.09.13a12.47,12.47,0,0,0-2.45-1c-.45-.08-.74.22-1.31.14l.06-.3-.82.12-.3-.46-.53-.06c.2.07.4.25.34.33a3.66,3.66,0,0,1-1.26-.41c-.35-.22-.59-.45-.58-.53l-1.92-.43c.09-.1.41,0,.68,0-1.09-.07-.06-.37-1.06-.43.1.11-.13.14-.18.19A7.8,7.8,0,0,0,63.19,90l.23-.12c-1.3-.62-2.7-1.39-4.09-2.23.44.39.13.63-.3.4l0-.37c-.38,0,.35.37-.32.24-.47-.41-.12-.56.22-.43l-.66-.36c0-.1.19,0,.3-.11-.36,0-.81-1-1.37-1l0-.1-.86-.64-.67-.56c-.42-.35-.82-.68-1.31-1.12-.22.19-.56-.2-1-.32a26.72,26.72,0,0,0-1.95-2.61c-.62-.56-.33,0-.69-.23.16-.21-.55-1.14,0-.76-.44-.55-.72-.91-1-1.29s-.67-.8-1.21-1.52c0,.22.08.44,0,.39-.2-.26-.29-.7-.16-.72l.07.06a7,7,0,0,1-1.43-2.94A8.76,8.76,0,0,0,45.75,71l.06.07L45,69.57c-.22-.73.33.37.29-.21a6.06,6.06,0,0,1-.57-1.09c-.11-.36-.18-.69-.25-1a7.74,7.74,0,0,0-.55-2,5.86,5.86,0,0,0-.13-2.65c-.1-.52-.22-1-.28-1.54a4.8,4.8,0,0,1,.1-1.36l-.17.1c-.19-.39.08-.49.1-.78-.13,0-.13.44-.24.2a19.31,19.31,0,0,1,.15-5.14c.11-.86.36-1.71.54-2.56l.28-1.26.38-1.22c.35-1.19-.72-.92.08-2.35l.21.53A17.31,17.31,0,0,1,46,43.58a34.59,34.59,0,0,0,1.5-3.51c0,.16.09.22,0,.44.43-.36,1-1.66.82-1.78.21-.32.19,0,.4-.14.39-.36.41-1.3.77-1.39.06,0,0,.16,0,.25.08-.35,1-1.26.53-1.16.67-.67.95-1.53,1.55-2,.09-.56,1.18-1.09,1-1.5.31.37,1.32-1,1.65-1.51,0,.23.48-.25.44,0,.49-.46.88-.94.64-1,1.23-.47,1.64-1.94,2.62-1.82l1.07-1c.37-.31.76-.59,1.14-.87A20.2,20.2,0,0,1,62.3,25c.12.38-1.72,1-1.41,1.4.67-.53,1.18-1,1.75-1.37A9,9,0,0,1,64.56,24c.42-.14-.15.28-.25.42a9.62,9.62,0,0,1,2.26-1c.76-.26,1.47-.6,2.18-.89,0,0-.14.13-.28.2.28-.09.69-.11.6-.3l-.27.12c-.55-.16,1-.89,1-1.06-.35.7,1.51-.24.9.68.18-.08.4-.24.32-.36.3,0,.4,0,.15.24,1-.38.61-.46,1.57-.63,0,.1-.17.17-.25.3a3.37,3.37,0,0,1,1.75-.58c0,.07.06.13-.18.16a12.87,12.87,0,0,1,4-.65c-.45.45.53.11.62.48a5.71,5.71,0,0,1,.83-.11l-.33-.2a12.54,12.54,0,0,1,2,0l-.55.12H82l-.77-.18c.76-.15,0-.48.93-.32-.21,0,.75,0,1.1.33h0a2.54,2.54,0,0,1,1.3,0c.13.14-.17.39-.09.49.4-.24,1.72.14,2.23-.05-.16,0-.21.23-.17.28l.34-.17c.32.16.36.21.27.35,1,.31-.21-.54.93,0-.1,0-.06,0-.27,0a12.91,12.91,0,0,0,1.74.42,7,7,0,0,1,1.63.56c.18.47-1-.26-.7.18.76.24,1.59.43,2.41.63a11.67,11.67,0,0,1,2.26.94l-.24-.17c.43-.36,1,.73,1.75.9-.19-.06-.36.13-.29.1A31.45,31.45,0,0,0,99.76,27l-.24,0c.43.49,1.29,1.07,1.8,1.53.24,0,.54.28.48,0A7.55,7.55,0,0,0,104,30.64a4.85,4.85,0,0,1,1.94,2.1c-.16-.16-.45-.31-.33-.18l1.16,1.11c.09-.25,0-.25-.12-.62a2.1,2.1,0,0,1,.89.64c-.61-.45-.26.22-.2.57,0-.09.15,0,.19-.12.18.93.45-.17.92.93l-.14,0a5.84,5.84,0,0,1,.93.93c-.11.31-.38-.29-.58-.19.4.51,1.2.74,1.26,1.41-.21-.19-.39-.55-.63-.72a2.61,2.61,0,0,0,.39,1.16l0,0,.44,1-.07-.28c1,.35,1,1.32,1.85,2.12-.84-.77-.3-.05-.6,0,0,.29.14.71,0,.64.44.35.19.85.83,1.35-.08.07.22.5,0,.49.36.57.09-.2.22-.2.74.82.47,2.4,1.42,3.63.51,1.18.87,1.33,1.34,2.47-.06.43-.43-.24-.43-.24a5.14,5.14,0,0,0,.39,1.71c-.1-.11-.15,0-.23.24.09.47.4.26.35.92a1.56,1.56,0,0,1-.46-.42c.17.56.44,1.09.62,1.68-.15.17-.31-.33-.45-.52a6,6,0,0,0,.66,1.88l.08-.44c0,.24-.22.15-.29,0-.29-.54,0-.83.06-.87l.13.41c.5-.5-.35-1.7-.45-2.54l.47.28-.47-.82c.07-.2.28-.38.41,0,.09-.65-.27-.5-.17-1.08,0-.06,0,0,.08,0l-.27-.57c.11.1.26-.16.29.22,0-1.14-.74-1.65-.53-2.13l0,.08c-.56-1.43-.32-.06-1-1l.45-1-.34,0c0-.16-.13-.46,0-.45-.4-.47-.09.14-.39-.11a4.13,4.13,0,0,0-.37-1.3c-.2-.4-.34-.74-.16-.92-.33-.15.15.73-.35.06.38-.42-.48-.8-.56-1.53.34.07.49.73.41,0-.59-.18-.48-1.28-.89-1.73-.33.15-.79-1-1.4-1.8a2.11,2.11,0,0,0-.42-.94c-.31-.5-.69-1.11-.91-1.52H109c-.41.08-.88-.74-1.4-1.21.18-.11.35-.1.65.15a5,5,0,0,0-.42-.5,1.49,1.49,0,0,1-.69-.44l.32,0a16,16,0,0,1-2-2c-.23.14.13,1.09-.84.43.07-.13.2-.32.46-.16a1.14,1.14,0,0,1-.44-.34l.5.15c-.3-.41-.33,0-.61-.32.14-.14-.12-.31,0-.38s.2.3.37.35a2.85,2.85,0,0,1-.67-1c0,.11-.18.19-.44,0-.65-.58-.06-.38-.37-.8-.23-.05-.57-.51-.78-.28-.2-.16-.15-.29-.18-.41-.44-.17-1.69-1.24-1.47-.68l.07.08-.06,0h0c-1.29-.7-2.43-1.82-3.72-2.49l0-.09a10.94,10.94,0,0,0-2.39-.91c-.23-.11-.46-.43-.32-.49a5.71,5.71,0,0,1-1.55-.67c.69.08-.16-.23.68.14a3.52,3.52,0,0,0-1.87-.68c.39-.13-.5-.53-.91-.6l.51.38a8.83,8.83,0,0,1-1.2-.45l.31-.24a5.25,5.25,0,0,0-2.39-.54,3.91,3.91,0,0,1-2-.58c-.5.15.92.32.45.51a13.44,13.44,0,0,1-1.81-.81c-1.09-.34-1.1.29-2.24.05.14.13.24.45-.63.52-.79-.09-1-.55-.44-.62.2,0,.29,0,.28.08.27,0,.62-.06.3-.2l-.11.11c-.4-.14-1.53-.19-1.25-.37-.63.08-.28.18.18.27a13,13,0,0,0-2.72-.17c.17.05.33.18.16.19-1.59-.07-.69.26-1.75.37-.62-.15.19-.44-.88-.24-.67-.09-.17-.3.09-.41a5.61,5.61,0,0,1-1.36.14,10.49,10.49,0,0,0-1.07,0l.5-.18a3.85,3.85,0,0,1-.81.18l.33.19c-.31,0-.57.05-.58-.05-.29.2.3.35-.28.66-.42-.05-1.19.3-1.39.05,1.28-.14-.21-.3.86-.53a3,3,0,0,1-.77.12s0-.08.11-.11c-1.26,0-.48.49-1.71.8.11-.21-.37-.25-.57-.16.51-.13.32.23-.1.48-.82.07-.83.31-1.24.42a4.13,4.13,0,0,1,.49-.07c-.11.2-.51.29-1,.55-.09-.11.45-.27.24-.25-.48.51-1.44.18-2.19.69-.42,0-.16-.3-.52-.25-.85.54-1.08.22-2,.83.37.08.39,0-.17.53L64,22.09l-.83.79c.46-.22.9-.62,1.2-.7-.4.39-.36.33-.07.4-.77,0-1.15.79-2,.92L62.13,23a3.83,3.83,0,0,0-1.54.83A8.55,8.55,0,0,1,58.93,25l.49-.18c-.06.31-.81.54-1.2.88-.06-.18-.39-.09-.63,0,.11.1-.94.69-.82,1.1l-.72.21c-1.09.7-.82,1.31-1.74,2.09.13-.41-.37-.14.13-.81-.3.27-.6.5-.51.6-.26.08-.66,1-1.06,1.09-.07.18,0,.36-.31.66a.07.07,0,0,1-.07-.07c0,.06-.39.62,0,.47-1.26.53-2.35,2.57-3.34,3.17l-1.51,2.33c0-.08-.08-.06,0-.18-.73.86.13.89-.69,1.86-.61.39.19-.66-.12-.38-.63-.16-.75,1.34-1.44,1.94l.06-.21C45,40,45,41,44.53,42c0,0,0-.07-.09,0A19.05,19.05,0,0,1,43.81,45c-.13-.38,0-.48-.28-.38-.12.44.44,0,.2.89-.23.23-.58.81-.84.83a5.72,5.72,0,0,1,.26-.83c-.52.3-.33,1.07-.5,1.5l-.14-.1c-.28,1.31.1,1.42-.27,2.79l.15-.12c.21.83-.33.6-.17,1.41l-.42.17c0,.53.08,1.83.07,2.75a8.87,8.87,0,0,1-.3-2.32,5.81,5.81,0,0,0-.07,2,1.38,1.38,0,0,1,0-.67,7.23,7.23,0,0,1,.27,2.48c-.76-.21-.36,2.62-.83,3.38a13.72,13.72,0,0,1,.2,2.73c.08.94.14,1.92.32,3,.47-.84.11.61.69.37.1.47.18.64.14.7V67.1c-.09.38-.25-.43-.37-.35.22,1.06-.14.5-.12,1.25.17-.2.39.28.47.9l.05-.92c.67,1.37-.12,1.41.69,2.75l-.35-.39c.37.7,1,2.75,1.8,3.22,0,.15-.08.38-.26.09a14.46,14.46,0,0,0,1.48,2.57,9.6,9.6,0,0,1,1.38,2.26l-.2,0c.22.27.53.37.66.81-.06,0-.21,0-.12.1a4,4,0,0,1,1,1L48,80.15a6.73,6.73,0,0,0,1.46,1.74c.52.43,1.09.76,1.63,1.29-.33.28.5,1.48,1,2l-.06,0A17.79,17.79,0,0,0,54.26,87c.71.52,1.54.87,2.35,1.41a6.5,6.5,0,0,0,2.09,1.82c1,.59,2,1.3,2.81,1.81-.23-.2.2-.28.53-.17.38.28,1.27.28,1,.61l-.15-.08c.15.5,1,.88,1.73,1.11L65,93.1a7.26,7.26,0,0,0,3.09,1.35,5.39,5.39,0,0,1,2.6.85,9.78,9.78,0,0,0,1.53,0l-.08.27a18.33,18.33,0,0,0,3.51.53l-.35.19c.91.06,1.21-.76,2-.73l.23.43a12.59,12.59,0,0,0,4.7-.11c0,.06-.06.19-.31.22.74,0,2.89-.07,2.54-.59.07.36,1.61-.19,2.4-.52l-.07.3a3.38,3.38,0,0,1,1.54-1c.24,0,.26.16-.06.17.79,0,.52-.4,1.47-.5l-.29.26c.78-.19.7-.25,1-.6s1.44-.46,1.64-.27A1.22,1.22,0,0,1,93,92.8c.1.07,0,.18-.11.24a4,4,0,0,0,.85-.29c.23-.13.43-.27.62-.4a2.71,2.71,0,0,1,1.17-.56.22.22,0,0,0,.21.08c-1,.46-1.74.83-1.68.77.1.24.91-.1.43.53a7.85,7.85,0,0,1,2.25-1.65.39.39,0,0,1,.15,0l-.07.07a1,1,0,0,0,.46-.29,3.32,3.32,0,0,0,.63-.3c.19.14.91-.42,1.29-.64-.18-.22.32-.48-.25-.4.07,0,0,.07-.29.23-.05.05-.11.09-.14.13v0l-.9.58a1.55,1.55,0,0,1,.94-.71c.09-.27.2-.55.27-.7A4.68,4.68,0,0,0,100,89.3c.39-.1.71-.22.84-.16,1-.94,2.47-1.93,2.68-2.94.23-.3.42-.17.58-.21a3.29,3.29,0,0,0-.36.49c.46-.61,1.6-1.54,1.47-1.92.79-.53-.12.62.73-.35l0,.21a7.33,7.33,0,0,0,2.14-2.61,7.14,7.14,0,0,1,2.1-2.89c-.16.13-.23.19-.31.19,2-2.51,3.12-5.78,4.59-8.58a2.38,2.38,0,0,0,.24-1.55l.35-.09-.1-1a4.14,4.14,0,0,1,.66-1.74,5.55,5.55,0,0,0,.41-.92,3.32,3.32,0,0,0,0-1.15l-.24.17c.13-.59.17-1.9.39-1.77a.37.37,0,0,1,0-.44h.16a9.5,9.5,0,0,0-.14-1.49c.17-1.14.62.23.74-1.46,0-.64-.38-1.79-.49-1.56s-.13.64-.29.66l-.06-.57c-.46-.11-.91-.51-1.31.82l.24.94-.24.29,0-.79a1.07,1.07,0,0,0,0,1.05.58.58,0,0,0-.27.38l.4,1c-.2.09-.32-.44-.49.16.14.44.47-.37.49.35-.27.42-.42.27-.32.81-.13.06-.19-.06-.21-.27.07.48-.13,1.22.08,1.5a2.43,2.43,0,0,0-.26.93c-.06.32-.17.57-.38.51a3.23,3.23,0,0,1,0,1.29c-.32-.89-.42,1.55-.92,1.19.36.71-.48,2-.55,3.09a.39.39,0,0,1,0-.28,4,4,0,0,1-.63.94c.35.23,0,1.07,0,1.62-.64.48-.23-.59-.65-.53.3.09-.24,1.23.1,1.13-.44.39-.3.38-.71.48.38.3-.12.51-.1,1-.61.56-.5,0-.82.76C109.37,76.22,109.61,75.49,109.61,75.49ZM95.72,90.09h0l.37-.2Zm-1.56.76c.2-.08.44-.19.69-.32.09.06.08.18-.08.25C94.82,90.68,94.43,90.81,94.16,90.85Zm4.24,0c-.23.19-.34.19-.4.16l.41-.29,0,0A.38.38,0,0,1,98.4,90.8Z" transform="translate(-40.96 -18.9)"/><path class="cls-2" d="M98.65,90.21l.09-.08-.18,0,0,.13Z" transform="translate(-40.96 -18.9)"/><path class="cls-2" d="M101,26.86l0,0a.3.3,0,0,1,0,.08A.11.11,0,0,1,101,26.86Z" transform="translate(-40.96 -18.9)"/><polygon class="cls-2" points="29.95 73.85 29.94 73.92 30.1 73.89 29.95 73.85"/><path class="cls-2" d="M107.32,34.26a.27.27,0,0,0,0,.14A.28.28,0,0,0,107.32,34.26Z" transform="translate(-40.96 -18.9)"/><path class="cls-2" d="M109.66,37.68l.21.56A5.88,5.88,0,0,0,109.66,37.68Z" transform="translate(-40.96 -18.9)"/><path class="cls-2" d="M111.12,40.51a.65.65,0,0,0,.14,0h-.14Z" transform="translate(-40.96 -18.9)"/><path class="cls-2" d="M68.47,22.68l-.12,0C68.1,22.87,68.27,22.77,68.47,22.68Z" transform="translate(-40.96 -18.9)"/><path class="cls-2" d="M83.25,20.69a2.73,2.73,0,0,1-.49.06C83,20.81,83.22,20.85,83.25,20.69Z" transform="translate(-40.96 -18.9)"/><polygon class="cls-2" points="13.59 12.43 13.59 12.43 13.51 12.49 13.59 12.43"/><path class="cls-2" d="M82.06,20.71a1.88,1.88,0,0,0,.7,0A2.36,2.36,0,0,0,82.06,20.71Z" transform="translate(-40.96 -18.9)"/><path class="cls-2" d="M114.92,53.63s0,.1,0,.15,0,0,0,0S114.93,53.68,114.92,53.63Z" transform="translate(-40.96 -18.9)"/><path class="cls-2" d="M115,53.79l0,.17C115,53.88,115,53.81,115,53.79Z" transform="translate(-40.96 -18.9)"/><path class="cls-2" d="M115.1,54.31,115,54A.57.57,0,0,0,115.1,54.31Z" transform="translate(-40.96 -18.9)"/><path class="cls-2" d="M114.36,49.47l-.11,0A.16.16,0,0,0,114.36,49.47Z" transform="translate(-40.96 -18.9)"/><path class="cls-2" d="M114,48.24a4.82,4.82,0,0,0,.15,1.18l.09,0C114.05,49.29,114.25,48.48,114,48.24Z" transform="translate(-40.96 -18.9)"/><path class="cls-2" d="M113.53,42.69l.3,1.07c0-.22.08-.51.28,0C113.93,42.28,114,44.07,113.53,42.69Z" transform="translate(-40.96 -18.9)"/><path class="cls-2" d="M112.19,39.52c.31.52.14-.08.21-.08C112.15,39.15,112.08,39.08,112.19,39.52Z" transform="translate(-40.96 -18.9)"/><path class="cls-2" d="M94.43,22.73l.16-.2C94.16,22.36,94.55,22.62,94.43,22.73Z" transform="translate(-40.96 -18.9)"/><path class="cls-2" d="M89.6,22.28a3.37,3.37,0,0,1,.37.29l.26-.15A4.42,4.42,0,0,0,89.6,22.28Z" transform="translate(-40.96 -18.9)"/><polygon class="cls-2" points="46.42 0.92 46.63 0.94 45.85 0.83 46.42 0.92"/><path class="cls-2" d="M49.52,33.14l.33.08C50,33,49.77,32.67,49.52,33.14Z" transform="translate(-40.96 -18.9)"/><path class="cls-2" d="M42.1,49.54a1,1,0,0,0-.28,1C41.9,50.12,42.08,49.74,42.1,49.54Z" transform="translate(-40.96 -18.9)"/><polygon class="cls-2" points="24.73 74.88 24.34 74.85 25.03 75.01 24.73 74.88"/><ellipse class="cls-3" cx="7.54" cy="38.1" rx="2.5" ry="2"/><path class="cls-2" d="M50.33,57c.09,0,.29,0,.25,0h-.34Z" transform="translate(-40.96 -18.9)"/><path class="cls-2" d="M50.94,56.87a3.55,3.55,0,0,0-.75,0c.32,0,.19,0,.57,0,0,0-.11,0-.23,0,.09,0-.07,0,.14,0s.26-.07,0-.09Z" transform="translate(-40.96 -18.9)"/><path class="cls-2" d="M50.06,54.9V55A.13.13,0,0,0,50.06,54.9Z" transform="translate(-40.96 -18.9)"/><path class="cls-2" d="M48.68,54.36a.12.12,0,0,0,0-.07A.14.14,0,0,0,48.68,54.36Z" transform="translate(-40.96 -18.9)"/><path class="cls-2" d="M48.42,54v0S48.42,54,48.42,54Z" transform="translate(-40.96 -18.9)"/><path class="cls-2" d="M50.06,54.9v-.11C50,54.89,50.05,54.87,50.06,54.9Z" transform="translate(-40.96 -18.9)"/><path class="cls-2" d="M50.12,56.8h0Z" transform="translate(-40.96 -18.9)"/><path class="cls-2" d="M50.77,55.06h0l.1-.09Z" transform="translate(-40.96 -18.9)"/><path class="cls-2" d="M51.21,55.42s-.22.16-.32.23l.17-.1Z" transform="translate(-40.96 -18.9)"/><path class="cls-2" d="M51.19,56.41h0Z" transform="translate(-40.96 -18.9)"/><path class="cls-2" d="M50.49,54.77l0-.09Z" transform="translate(-40.96 -18.9)"/><path class="cls-2" d="M49.66,57.09l.05,0Z" transform="translate(-40.96 -18.9)"/><polygon class="cls-2" points="10.11 38.1 10.12 38.11 10.28 38.11 10.11 38.1"/><path class="cls-2" d="M47.85,53.68h0S47.86,53.66,47.85,53.68Z" transform="translate(-40.96 -18.9)"/><path class="cls-2" d="M45,57.81c.22-.13.34,0,.58-.17C45.44,57.69,45.09,57.69,45,57.81Z" transform="translate(-40.96 -18.9)"/><path class="cls-2" d="M50.16,56.79h0S50.15,56.79,50.16,56.79Z" transform="translate(-40.96 -18.9)"/><path class="cls-2" d="M45.54,57.64Z" transform="translate(-40.96 -18.9)"/><path class="cls-2" d="M46.67,54.22l.06.1Z" transform="translate(-40.96 -18.9)"/><path class="cls-2" d="M47.65,54.29l0,0Z" transform="translate(-40.96 -18.9)"/><path class="cls-2" d="M46.45,54.8s-.05,0,0,0l0,0S46.41,54.77,46.45,54.8Z" transform="translate(-40.96 -18.9)"/><path class="cls-2" d="M46.07,55.1l0,0v0Z" transform="translate(-40.96 -18.9)"/><path class="cls-2" d="M49.55,57.47l.17.19C49.59,57.51,49.56,57.43,49.55,57.47Z" transform="translate(-40.96 -18.9)"/><path class="cls-2" d="M50.28,56.76l-.12,0h0Z" transform="translate(-40.96 -18.9)"/><path class="cls-2" d="M47.68,56.64h0S47.67,56.65,47.68,56.64Z" transform="translate(-40.96 -18.9)"/><path class="cls-2" d="M48.1,57.81l0,0S48.11,57.78,48.1,57.81Z" transform="translate(-40.96 -18.9)"/><path class="cls-2" d="M47.6,56.7l-.13-.14,0,.06Z" transform="translate(-40.96 -18.9)"/><path class="cls-2" d="M49.72,57.66Z" transform="translate(-40.96 -18.9)"/><path class="cls-2" d="M49.36,57.08s.27.24.43.38-.22-.17-.36-.29c.06.08.3.32.28.32l-.12-.11c.2.23,0,0,.19.34l-.06-.06.34.38s.12.2,0,0a.85.85,0,0,0-.09-.14l0,.1c-.23-.26-.06-.11-.23-.31.06.11.2.36.11.3-.2-.27,0-.13-.23-.35l.11.08c-.35-.4,0,0-.34-.41-.08-.06.08.16,0,.1l.26.39c.12.33-.51-.69-.3-.29.11.2.32.58.17.4l-.18-.34c-.05,0,.24.5.08.29s0-.13-.06-.16c-.16-.26.08.2.06.21l-.15-.3c0,.07,0,.31,0,.39a1.72,1.72,0,0,0-.11-.29c0,.19-.16,0-.26-.17l0,.29a1,1,0,0,1,0-.19c0-.1,0,.18,0,.3a.78.78,0,0,1-.06-.25c0,.25-.06.56-.15.25v-.09c0-.11,0,.61,0,.34v-.06c-.1-.12-.21.16-.26-.29,0,.42-.08-.19-.13.39,0-.3,0-.4,0-.6,0,0-.08.36-.11.42l0-.31-.09.31,0-.36,0,.07a1.58,1.58,0,0,1,0,.23c-.06.13,0-.23,0-.38l-.13.23a1.38,1.38,0,0,1,.09-.23c-.12.29.08-.31,0,0l-.08.23c0-.18,0-.19,0-.13l.08-.2c0-.07-.13.07-.17,0a2.7,2.7,0,0,1-.22.45l.13-.3a3.2,3.2,0,0,1-.16.33,2.23,2.23,0,0,1,.2-.43l-.07.09.13-.24c-.1.18.12-.3-.06,0l0-.08s-.11.06-.15,0a4.26,4.26,0,0,1-.28.35c0-.1.12-.29.09-.3a4,4,0,0,0-.29.29c.17-.19.13-.2.27-.32-.07,0-.07,0-.27.1a1.36,1.36,0,0,1-.17.17s.06-.09.16-.17l0,0c-.17.1,0-.06.07-.17s.25-.21,0-.09h0a1.43,1.43,0,0,1-.27.09s.18-.07.32-.15c-.41.14,0-.07-.24,0,.72-.22-.07-.07.4-.16l-.17,0c-.18,0,.1,0,.14,0l-.26,0c-.22-.07.27-.11.42,0s-.86-.33-.45-.2l.3.14c-.34-.21,0-.06-.2-.29l.13.11c.2.14,0,0-.11-.15l.21.18c.11.08-.2-.23,0-.08l.06.08c-.08-.09.05,0-.15-.2.1.08,0-.13.08,0-.19-.25.13.09-.14-.26.28.36.26.26.16.07.07.12.09.11.19.27,0,0,0-.09-.15-.29.32.45-.13-.42.22.17a1.14,1.14,0,0,1,0-.55c.15.42-.06.07.12.51,0-.19-.11-.58,0-.49a1.67,1.67,0,0,1,.06.26c0-.19.13,0,.14-.24a.49.49,0,0,1,0,.12s0,.06,0-.14v0a3.63,3.63,0,0,1-.09-.77c.08.58.1.13.18.87a1.07,1.07,0,0,0,0-.28.9.9,0,0,1,0,.28c0-.12,0-.33,0-.33l0,.25c0-.19,0-.39,0-.31s0,.14,0,.14.08-.52.17-.34c0,.43,0,.14,0,.51l0-.11v-.18s.07-.26.1-.14l0,.15.07-.07,0-.14c0-.19,0-.47.07-.37s0,0,0,.23h0c0-.11.06-.24.08-.14l-.05.49c.05-.31.09-.08.16-.4a2.19,2.19,0,0,0-.05.31l.05-.25a.74.74,0,0,1,0,.27c0,.06.07-.47.09-.25a.23.23,0,0,1,0,.09c0,.12.16-.13.19,0-.08.37-.07.08-.13.39.08,0,.28-.39.33-.28v0c.18-.5,0,.27.08,0l-.09.22c0,.09.14-.09.29-.2l-.07.12c0,.12,0,.1,0,.17a3,3,0,0,0,.17-.26c-.33.7.41-.24.11.35,0,0-.09.08-.09.08l.14,0a2.09,2.09,0,0,0,.18-.27c.09-.1.18-.16.2-.14a1.4,1.4,0,0,0-.31.39l.14-.17c-.24.34.32-.34.18-.09l-.08.08c.06,0,.18-.12.18-.08-.18.2-.11.07-.26.23,0,0,.41-.31.24-.1l-.15.07c-.2.24-.14.18-.17.23h0l-.08.12.06-.06c.56-.42.14,0,.54-.25-.38.2-.2.14-.45.31a1.06,1.06,0,0,1-.2.17c.21-.12-.15.13.16,0-.08,0,0,0-.2.14a1.46,1.46,0,0,0,.24-.15c.32-.12-.31.26.12.11a3.61,3.61,0,0,1,.68-.12,1.36,1.36,0,0,1-.34.1c-.12.07-.09.08,0,.08l-.25.08s.35-.08.21,0l-.38.07c.09,0,.27,0,.36,0a3.37,3.37,0,0,1-.36,0,1.61,1.61,0,0,0,.43,0l.09,0s-.23,0-.28,0c-.21,0,.09-.05.18-.07h.07c.56-.12-.11-.07-.08-.11l.41-.08-.35,0a1.37,1.37,0,0,1,.39-.11c.18-.09-.15,0,0-.09l.07,0h-.13c.09,0,.28-.1.23-.06.2-.16-.33,0-.06-.15h0c-.17-.05-.29.1-.64.19.22-.12.44-.24.66-.38l-.28.13s0,0,.13-.09c-.21.06-.12.06-.3.14.21-.18-.18,0,.22-.31-.2.11-.12.13-.28.18.43-.3-.11,0,.06-.17s.14,0,.31-.21c-.39.24,0-.14-.08-.13-.29.23-.18,0-.32.06.1-.08.06-.24.09-.38l.05,0c-.26.26-.26.16-.35.19a1.16,1.16,0,0,1,.29-.28l0,0a.46.46,0,0,1-.18.14l.18-.21c-.07,0-.3.18-.26,0a4,4,0,0,1-.52.71,2.51,2.51,0,0,1,.25-.34s-.08.08-.06,0l.16-.17c0-.11-.12.15-.13.12s.06-.13.15-.26,0,.08,0,0a.59.59,0,0,1,.09-.3c-.06.1-.15.23-.18.23s.11-.21.13-.32c-.09.11,0,0-.2.22,0,0,0-.13.08-.2-.09.09-.16,0-.27.25v0h0c-.22.23-.11-.24-.26-.16l0-.09c-.1.08-.15,0-.26.2a.83.83,0,0,1,.07-.3c-.07.06-.11.17-.13,0s0-.15.09-.11,0-.25-.15,0c.09-.24,0-.32,0-.26v.19c-.05,0-.07,0-.09,0l.09-.32c-.07-.43-.37.63-.36,0-.07.23,0,.17,0,.44a4.72,4.72,0,0,1-.08-.54c-.07-.19-.13.47-.2.34a1.7,1.7,0,0,1-.07.55,1.33,1.33,0,0,1,0-.6s0,0,0,.07a.3.3,0,0,0,0-.22v.12c0-.12-.11-.11-.09-.31a.29.29,0,0,0,0,.26c-.07-.18-.12,0-.21-.13a.6.6,0,0,1,0,.21c-.12-.14-.05.22-.12.28,0-.18,0-.43-.08-.28a.82.82,0,0,1,0-.41c-.06.23-.16-.14-.22-.17l0-.1c0,.06-.05.06-.07.06l0,.23A.18.18,0,0,1,48,53.7c0,.15.06.39,0,.6,0-.11-.07.14-.13-.17.12.1,0-.31,0-.37s0,0-.07,0a.21.21,0,0,1,0-.08c-.15-.27,0,.35-.09.37,0-.18-.09-.33-.1-.29s.08.29.07.43c-.09-.12,0,.11-.08.1l.05.06c0,.18,0,.16,0,.22,0-.13,0-.1,0-.15,0,.31-.18-.29-.19-.07a4,4,0,0,0-.15-.39c0,.24-.15-.21-.18,0a.7.7,0,0,1,.1.4l.08-.2,0,.35s0-.16.07-.13a.69.69,0,0,0,.08.32c-.15-.32,0,.23-.15,0l-.2-.56c-.19-.21-.06.35-.22.26l.08.07c.08.23-.06.07-.05.17a1.86,1.86,0,0,0-.21-.34c.07.13-.09,0,.08.39l-.17-.21c-.14,0,.18.55.08.53-.09-.19-.21-.29-.23-.45,0,0-.08,0,0,.11-.09-.09.07.27-.06.14,0,.07.15.25.12.25L46.49,55a1.2,1.2,0,0,0,.19.3c-.45-.44-.16.18-.57-.16a.79.79,0,0,1,0,.25s-.07-.07-.05-.06c-.19-.06.39.42.17.35s-.1-.15-.21-.21c-.5-.41,0,.15-.34,0l0,0c-.22-.08.11.25,0,.3l-.08-.06a1.22,1.22,0,0,1,.34.48,1.45,1.45,0,0,0-.34-.2s.37.18.41.27a4.35,4.35,0,0,1-.52-.15l0-.07c-.34-.11,0,.09-.1.1L45.22,56c0,.14.38.27.32.36l.12,0c.35.16-.23,0,0,.12l-.38-.08c.08.07.34.23.4.3a1.88,1.88,0,0,1-.57-.29s0,.16.19.21c0,0-.13-.06-.06-.07.29.11.43.18.42.25-.76-.06-.2.19-.78.28.28.15-.09.36,0,.58.56-.22,0,0,.62-.13,0,0,0,.05,0,.06s-.21.15-.31.24-.14,0-.27,0-.23.13-.35.27c.2-.1.31-.08.26,0l.22-.19c.36,0-.41.33-.05.33l-.2,0c.13,0,.15.27.6.07a.57.57,0,0,1-.24.15c.06.21.64,0,.5.28l-.12.09c.06,0,.24-.15.16,0s-.12.09-.11.11.24-.12.21,0l-.14.09c0,.26.46-.13.61-.14-.28.34-.26.53-.25.63l0,0c.13.16.47-.13.68-.21-.13.47.22.33.28.63a.87.87,0,0,1,.16-.35c0,.1.19-.26.06.12h0c-.1.39,0,.31.07.34l.16-.5c0,.79.43-.19.38.5.06-.13.11-.12.16-.25l0,.28c.1.09.15.13.29.07l0,.2c.08,0,.14-.81.2-.82v.42c.12,0,.27.36.38,0a.56.56,0,0,1,0,.2c.06,0,.27.27.18-.31,0,.38.14,0,.18-.15l0,.27c0-.35,0-.45,0-.56s0,.21,0,.15c.08.13,0-.27.08-.14l0,.18c.06,0,0-.08,0-.29s.12,0,.19.28c0-.15,0-.35,0-.29a1.63,1.63,0,0,1,0,.18c.15.15,0-.35.19-.11l.06.15c-.08,0-.14,0-.14,0a2.78,2.78,0,0,1,.21.62c0-.2,0-.63,0-.54l0,.08v0s0,0,0,0,.06,0,.08,0c.09.19.13.07.17.07-.12-.26-.06-.24-.2-.43,0,0,0,0,0,.05s0,0,0,0v0l-.07,0c0-.14-.05-.26,0-.13L49.85,59a8.1,8.1,0,0,0,.49.71c0-.19.18-.22,0-.7,0-.08.1.11.16.17s0,.06,0,.13c0-.14.12-.14-.08-.45.15.09.16.3.21.19l0,.1c.26.18.2-.07.11-.28s-.16-.4.18-.22l-.11-.07c.21,0,.24-.12.27-.26s.06-.24.36-.23c.13,0-.08-.14-.23-.25l.28.11-.29-.2c-.21-.16.77.06.35-.22l-.21,0c.05,0-.09-.16.14-.11,0,0-.2-.06-.09,0l.15,0-.25-.15c.12-.08.62.09.67-.07a1.17,1.17,0,0,0-.56-.15s-.1,0-.26,0l-.08,0c-.47,0-.94,0-1.27,0l.28,0h-.24c-.21,0,0,0,.1,0h-.24l.44.07-.46-.06c.2,0,.4.05.53.09-.21,0-.38-.06-.2,0l-.25-.05c.14,0,.06,0,.3.09-.25-.05.05.07-.37-.06a1.75,1.75,0,0,1,.34.14c-.49-.2,0,0-.57-.19.43.19.19.11.41.25l-.08-.05a1.19,1.19,0,0,1-.25-.11,3.7,3.7,0,0,1,.59.42c-.32-.19-.37-.27-.68-.46.27.17.25.2.47.34a3.06,3.06,0,0,1-.37-.24c.39.3.06.06.29.26-.2-.13-.36-.29-.26-.18A2.63,2.63,0,0,1,49.36,57.08Zm-.07,1h0v0Zm-.07,0h0a.71.71,0,0,1,.05.19A1.07,1.07,0,0,0,49.22,58.14Zm.91,1.74s0,0-.06-.06l0,0v0Z" transform="translate(-40.96 -18.9)"/><path class="cls-2" d="M50,59.52v0l0,0,0,.08Z" transform="translate(-40.96 -18.9)"/><path class="cls-2" d="M50.05,55h0v0Z" transform="translate(-40.96 -18.9)"/><polygon class="cls-2" points="7.24 38.79 7.22 38.86 7.24 38.8 7.24 38.79"/><path class="cls-2" d="M50,56.07l-.05,0Z" transform="translate(-40.96 -18.9)"/><path class="cls-2" d="M50.07,56.24l0,.09S50.07,56.26,50.07,56.24Z" transform="translate(-40.96 -18.9)"/><path class="cls-2" d="M50.05,56.43l.1-.07h0Z" transform="translate(-40.96 -18.9)"/><path class="cls-2" d="M48.07,56.13h0Z" transform="translate(-40.96 -18.9)"/><path class="cls-2" d="M48.73,55.43l0,.13S48.71,55.59,48.73,55.43Z" transform="translate(-40.96 -18.9)"/><polygon class="cls-2" points="6.72 37.74 6.72 37.74 6.71 37.74 6.72 37.74"/><path class="cls-2" d="M48.66,55.56s0,0,0,0S48.67,55.52,48.66,55.56Z" transform="translate(-40.96 -18.9)"/><path class="cls-2" d="M50.11,56.89h0Z" transform="translate(-40.96 -18.9)"/><path class="cls-2" d="M50.15,56.89h0Z" transform="translate(-40.96 -18.9)"/><path class="cls-2" d="M50.25,56.89h0Z" transform="translate(-40.96 -18.9)"/><path class="cls-2" d="M50.21,56.73l-.1,0Z" transform="translate(-40.96 -18.9)"/><path class="cls-2" d="M50.17,56.7s-.2.1-.14.09l.08,0C50,56.81,50.33,56.66,50.17,56.7Z" transform="translate(-40.96 -18.9)"/><path class="cls-2" d="M51.17,55.89l0,.11c.09-.06.2-.15.25-.13C51.61,55.61,51.19,56,51.17,55.89Z" transform="translate(-40.96 -18.9)"/><path class="cls-2" d="M51.15,55.58c.07,0,.13-.09.18-.13A.25.25,0,0,0,51.15,55.58Z" transform="translate(-40.96 -18.9)"/><path class="cls-2" d="M49.63,54.53l.08-.24S49.68,54.39,49.63,54.53Z" transform="translate(-40.96 -18.9)"/><polygon class="cls-2" points="8.05 36.84 8.04 36.99 8.1 36.77 8.05 36.84"/><polygon class="cls-2" points="8.21 35.01 8.23 34.98 8.16 35.06 8.21 35.01"/><path class="cls-2" d="M46,54.86l.21.23C46.17,55,45.94,54.75,46,54.86Z" transform="translate(-40.96 -18.9)"/><path class="cls-2" d="M45.37,56.32c-.15,0-.27,0-.12.06S45.41,56.35,45.37,56.32Z" transform="translate(-40.96 -18.9)"/><polygon class="cls-2" points="6.43 41.2 6.37 41.29 6.45 41.22 6.43 41.2"/><ellipse class="cls-3" cx="68.54" cy="38.1" rx="2.5" ry="2"/><path class="cls-2" d="M111.33,57c.09,0,.29,0,.25,0h-.34Z" transform="translate(-40.96 -18.9)"/><path class="cls-2" d="M111.94,56.87a3.55,3.55,0,0,0-.75,0c.32,0,.19,0,.57,0,0,0-.11,0-.23,0,.09,0-.07,0,.14,0s.26-.07,0-.09Z" transform="translate(-40.96 -18.9)"/><path class="cls-2" d="M111.06,54.9V55A.13.13,0,0,0,111.06,54.9Z" transform="translate(-40.96 -18.9)"/><path class="cls-2" d="M109.68,54.36a.12.12,0,0,0,0-.07A.14.14,0,0,0,109.68,54.36Z" transform="translate(-40.96 -18.9)"/><path class="cls-2" d="M109.42,54v0S109.42,54,109.42,54Z" transform="translate(-40.96 -18.9)"/><path class="cls-2" d="M111.06,54.9v-.11C111,54.89,111.05,54.87,111.06,54.9Z" transform="translate(-40.96 -18.9)"/><path class="cls-2" d="M111.12,56.8h0Z" transform="translate(-40.96 -18.9)"/><path class="cls-2" d="M111.77,55.06h0l.1-.09Z" transform="translate(-40.96 -18.9)"/><path class="cls-2" d="M112.21,55.42s-.22.16-.32.23l.17-.1Z" transform="translate(-40.96 -18.9)"/><path class="cls-2" d="M112.19,56.41h0Z" transform="translate(-40.96 -18.9)"/><path class="cls-2" d="M111.49,54.77l.05-.09Z" transform="translate(-40.96 -18.9)"/><path class="cls-2" d="M110.66,57.09l0,0Z" transform="translate(-40.96 -18.9)"/><polygon class="cls-2" points="71.11 38.1 71.12 38.11 71.28 38.11 71.11 38.1"/><path class="cls-2" d="M108.85,53.68h0S108.86,53.66,108.85,53.68Z" transform="translate(-40.96 -18.9)"/><path class="cls-2" d="M106,57.81c.22-.13.34,0,.58-.17C106.44,57.69,106.09,57.69,106,57.81Z" transform="translate(-40.96 -18.9)"/><path class="cls-2" d="M111.16,56.79h0S111.15,56.79,111.16,56.79Z" transform="translate(-40.96 -18.9)"/><path class="cls-2" d="M106.54,57.64Z" transform="translate(-40.96 -18.9)"/><path class="cls-2" d="M107.67,54.22l.06.1Z" transform="translate(-40.96 -18.9)"/><path class="cls-2" d="M108.65,54.29l0,0S108.64,54.29,108.65,54.29Z" transform="translate(-40.96 -18.9)"/><path class="cls-2" d="M107.45,54.8s0,0,0,0l0,0S107.41,54.77,107.45,54.8Z" transform="translate(-40.96 -18.9)"/><path class="cls-2" d="M107.07,55.1l0,0v0Z" transform="translate(-40.96 -18.9)"/><path class="cls-2" d="M110.55,57.47l.17.19C110.59,57.51,110.56,57.43,110.55,57.47Z" transform="translate(-40.96 -18.9)"/><path class="cls-2" d="M111.28,56.76l-.12,0h0Z" transform="translate(-40.96 -18.9)"/><path class="cls-2" d="M108.68,56.64h-.05S108.67,56.65,108.68,56.64Z" transform="translate(-40.96 -18.9)"/><path class="cls-2" d="M109.1,57.81l0,0S109.11,57.78,109.1,57.81Z" transform="translate(-40.96 -18.9)"/><path class="cls-2" d="M108.6,56.7l-.13-.14,0,.06Z" transform="translate(-40.96 -18.9)"/><path class="cls-2" d="M110.72,57.66Z" transform="translate(-40.96 -18.9)"/><path class="cls-2" d="M110.36,57.08s.27.24.43.38-.22-.17-.36-.29c.06.08.3.32.28.32l-.12-.11c.2.23,0,0,.19.34l-.06-.06.34.38s.12.2,0,0a.85.85,0,0,0-.09-.14l0,.1c-.23-.26-.06-.11-.23-.31.06.11.2.36.11.3-.2-.27,0-.13-.23-.35l.11.08c-.35-.4,0,0-.34-.41-.08-.06.08.16,0,.1l.26.39c.12.33-.51-.69-.3-.29.11.2.32.58.17.4l-.18-.34s.24.5.08.29,0-.13-.06-.16c-.16-.26.08.2.06.21l-.15-.3c0,.07,0,.31,0,.39a1.72,1.72,0,0,0-.11-.29c0,.19-.16,0-.26-.17l0,.29a1,1,0,0,1,0-.19c0-.1,0,.18,0,.3a.78.78,0,0,1-.06-.25c0,.25-.06.56-.15.25v-.09c0-.11,0,.61,0,.34v-.06c-.1-.12-.21.16-.26-.29,0,.42-.08-.19-.13.39,0-.3,0-.4,0-.6,0,0-.08.36-.11.42l0-.31-.09.31.05-.36,0,.07a1.58,1.58,0,0,1,0,.23c-.06.13,0-.23,0-.38l-.13.23a1.38,1.38,0,0,1,.09-.23c-.12.29.08-.31,0,0l-.08.23c0-.18,0-.19,0-.13l.08-.2c0-.07-.13.07-.17,0a2.7,2.7,0,0,1-.22.45l.13-.3a3.2,3.2,0,0,1-.16.33,2.23,2.23,0,0,1,.2-.43l-.07.09.13-.24c-.1.18.12-.3-.06,0l0-.08s-.11.06-.15,0a4.26,4.26,0,0,1-.28.35c0-.1.12-.29.09-.3a4,4,0,0,0-.29.29c.17-.19.13-.2.27-.32-.07,0-.07,0-.27.1l-.17.17s.06-.09.16-.17l0,0c-.17.1-.05-.06.07-.17s.25-.21,0-.09h0a1.43,1.43,0,0,1-.27.09s.18-.07.32-.15c-.41.14,0-.07-.24,0,.72-.22-.07-.07.4-.16l-.17,0c-.18,0,.1,0,.14,0l-.26,0c-.22-.07.27-.11.42,0s-.86-.33-.45-.2l.3.14c-.34-.21,0-.06-.2-.29l.13.11c.2.14,0,0-.11-.15l.21.18c.11.08-.2-.23,0-.08l.06.08c-.08-.09,0,0-.15-.2.1.08,0-.13.08,0-.19-.25.13.09-.14-.26.28.36.26.26.16.07.07.12.09.11.19.27,0,0,0-.09-.15-.29.32.45-.13-.42.22.17a1.14,1.14,0,0,1,0-.55c.15.42-.06.07.12.51,0-.19-.11-.58,0-.49a1.67,1.67,0,0,1,.06.26c0-.19.13,0,.14-.24a.49.49,0,0,1,0,.12s0,.06,0-.14v0a3.63,3.63,0,0,1-.09-.77c.08.58.1.13.18.87a1.07,1.07,0,0,0,0-.28.9.9,0,0,1,0,.28c0-.12,0-.33,0-.33l0,.25c0-.19,0-.39,0-.31s0,.14,0,.14.08-.52.17-.34c0,.43,0,.14,0,.51l0-.11v-.18s.07-.26.1-.14l0,.15.07-.07,0-.14c0-.19,0-.47.07-.37s0,0,0,.23h0c0-.11.06-.24.08-.14l0,.49c0-.31.09-.08.16-.4a2.19,2.19,0,0,0,0,.31l0-.25a.74.74,0,0,1,0,.27c0,.06.07-.47.09-.25a.23.23,0,0,1,0,.09c0,.12.16-.13.19,0-.08.37-.07.08-.13.39.08,0,.28-.39.33-.28v0c.18-.5,0,.27.08,0l-.09.22c0,.09.14-.09.29-.2l-.07.12c0,.12,0,.1,0,.17a3,3,0,0,0,.17-.26c-.33.7.41-.24.11.35,0,0-.09.08-.09.08l.14,0a2.09,2.09,0,0,0,.18-.27c.09-.1.18-.16.2-.14a1.4,1.4,0,0,0-.31.39l.14-.17c-.24.34.32-.34.18-.09l-.08.08c.06,0,.18-.12.18-.08-.18.2-.11.07-.26.23,0,0,.41-.31.24-.1l-.15.07c-.2.24-.14.18-.17.23h0l-.08.12.06-.06c.56-.42.14,0,.54-.25-.38.2-.2.14-.45.31a1.06,1.06,0,0,1-.2.17c.21-.12-.15.13.16,0-.08,0,0,0-.2.14a1.46,1.46,0,0,0,.24-.15c.32-.12-.31.26.12.11a3.61,3.61,0,0,1,.68-.12,1.36,1.36,0,0,1-.34.1c-.12.07-.09.08,0,.08l-.25.08s.35-.08.21,0l-.38.07c.09,0,.27,0,.36,0a3.37,3.37,0,0,1-.36,0,1.61,1.61,0,0,0,.43,0l.09,0s-.23,0-.28,0c-.21,0,.09-.05.18-.07h.07c.56-.12-.11-.07-.08-.11l.41-.08-.35,0a1.37,1.37,0,0,1,.39-.11c.18-.09-.15,0,.05-.09l.07,0h-.13c.09,0,.28-.1.23-.06.2-.16-.33,0-.06-.15h0c-.17-.05-.29.1-.64.19.22-.12.44-.24.66-.38l-.28.13s0,0,.13-.09c-.21.06-.12.06-.3.14.21-.18-.18,0,.22-.31-.2.11-.12.13-.28.18.43-.3-.11,0,.06-.17s.14,0,.31-.21c-.39.24,0-.14-.08-.13-.29.23-.18,0-.32.06.1-.08.06-.24.09-.38l0,0c-.26.26-.26.16-.35.19a1.16,1.16,0,0,1,.29-.28l0,0a.46.46,0,0,1-.18.14l.18-.21c-.07,0-.3.18-.26,0a4,4,0,0,1-.52.71,2.51,2.51,0,0,1,.25-.34s-.08.08-.06,0l.16-.17c0-.11-.12.15-.13.12s.06-.13.15-.26,0,.08,0,0a.59.59,0,0,1,.09-.3c-.06.1-.15.23-.18.23s.11-.21.13-.32c-.09.11,0,0-.2.22,0,0,.05-.13.08-.2-.09.09-.16,0-.27.25v0h0c-.22.23-.11-.24-.26-.16l0-.09c-.1.08-.15,0-.26.2a.83.83,0,0,1,.07-.3c-.07.06-.11.17-.13,0s0-.15.09-.11,0-.25-.15,0c.09-.24,0-.32,0-.26v.19s-.07,0-.09,0l.09-.32c-.07-.43-.37.63-.36,0-.07.23,0,.17,0,.44a4.72,4.72,0,0,1-.08-.54c-.07-.19-.13.47-.2.34a1.7,1.7,0,0,1-.07.55,1.33,1.33,0,0,1,0-.6s0,0,0,.07a.3.3,0,0,0,0-.22v.12c0-.12-.11-.11-.09-.31a.29.29,0,0,0,0,.26c-.07-.18-.12,0-.21-.13a.6.6,0,0,1,0,.21c-.12-.14,0,.22-.12.28,0-.18,0-.43-.08-.28a.82.82,0,0,1,0-.41c-.06.23-.16-.14-.22-.17l0-.1c0,.06,0,.06-.07.06l.05.23a.18.18,0,0,1-.06-.13c0,.15.06.39,0,.6,0-.11-.07.14-.13-.17.12.1,0-.31,0-.37s0,0-.07,0a.21.21,0,0,1,0-.08c-.15-.27,0,.35-.09.37,0-.18-.09-.33-.1-.29s.08.29.07.43c-.09-.12,0,.11-.08.1l0,.06c0,.18,0,.16,0,.22,0-.13,0-.1,0-.15,0,.31-.18-.29-.19-.07a4,4,0,0,0-.15-.39c0,.24-.15-.21-.18,0a.7.7,0,0,1,.1.4l.08-.2,0,.35s0-.16.07-.13a.69.69,0,0,0,.08.32c-.15-.32,0,.23-.15,0l-.2-.56c-.19-.21-.06.35-.22.26l.08.07c.08.23-.06.07,0,.17a1.86,1.86,0,0,0-.21-.34c.07.13-.09,0,.08.39l-.17-.21c-.14,0,.18.55.08.53-.09-.19-.21-.29-.23-.45,0,0-.08,0,0,.11-.09-.09.07.27-.06.14,0,.07.15.25.12.25l-.06-.08a1.2,1.2,0,0,0,.19.3c-.45-.44-.16.18-.57-.16a.79.79,0,0,1,0,.25s-.07-.07,0-.06c-.19-.06.39.42.17.35s-.1-.15-.21-.21c-.5-.41,0,.15-.34,0l0,0c-.22-.08.11.25,0,.3l-.08-.06a1.22,1.22,0,0,1,.34.48,1.45,1.45,0,0,0-.34-.2s.37.18.41.27a4.35,4.35,0,0,1-.52-.15l0-.07c-.34-.11,0,.09-.1.1l-.15-.06c0,.14.38.27.32.36l.12,0c.35.16-.23,0,0,.12l-.38-.08c.08.07.34.23.4.3a1.88,1.88,0,0,1-.57-.29s0,.16.19.21c0,0-.13-.06-.06-.07.29.11.43.18.42.25-.76-.06-.2.19-.78.28.28.15-.09.36,0,.58.56-.22,0,0,.62-.13,0,0,0,.05,0,.06s-.21.15-.31.24-.14,0-.27,0-.23.13-.35.27c.2-.1.31-.08.26,0l.22-.19c.36,0-.41.33,0,.33l-.2,0c.13,0,.15.27.6.07a.57.57,0,0,1-.24.15c.06.21.64,0,.5.28l-.12.09c.06,0,.24-.15.16,0s-.12.09-.11.11.24-.12.21,0l-.14.09c0,.26.46-.13.61-.14-.28.34-.26.53-.25.63l0,0c.13.16.47-.13.68-.21-.13.47.22.33.28.63a.87.87,0,0,1,.16-.35c0,.1.19-.26.06.12h0c-.1.39,0,.31.07.34l.16-.5c0,.79.43-.19.38.5.06-.13.11-.12.16-.25l0,.28c.1.09.15.13.29.07l0,.2c.08,0,.14-.81.2-.82v.42c.12,0,.27.36.38,0a.56.56,0,0,1,0,.2c.06,0,.27.27.18-.31,0,.38.14,0,.18-.15l0,.27c0-.35,0-.45,0-.56s0,.21,0,.15c.08.13,0-.27.08-.14l0,.18c.06,0,0-.08,0-.29s.12,0,.19.28c0-.15,0-.35,0-.29a1.63,1.63,0,0,1,0,.18c.15.15,0-.35.19-.11l.06.15c-.08,0-.14,0-.14,0a2.78,2.78,0,0,1,.21.62c0-.2,0-.63,0-.54l0,.08v0s0,0,0,0,.06,0,.08,0c.09.19.13.07.17.07-.12-.26-.06-.24-.2-.43,0,0,0,0,0,.05s0,0,0,0v0l-.07,0c0-.14,0-.26,0-.13l-.14-.44a8.1,8.1,0,0,0,.49.71c0-.19.18-.22,0-.7,0-.08.1.11.16.17s0,.06,0,.13c0-.14.12-.14-.08-.45.15.09.16.3.21.19l0,.1c.26.18.2-.07.11-.28s-.16-.4.18-.22l-.11-.07c.21,0,.24-.12.27-.26s.06-.24.36-.23c.13,0-.08-.14-.23-.25l.28.11-.29-.2c-.21-.16.77.06.35-.22l-.21,0s-.09-.16.14-.11c0,0-.2-.06-.09,0l.15,0-.25-.15c.12-.08.62.09.67-.07a1.17,1.17,0,0,0-.56-.15s-.1,0-.26,0l-.08,0c-.47,0-.94,0-1.27,0l.28,0h-.24c-.21,0,0,0,.1,0h-.24l.44.07-.46-.06c.2,0,.4.05.53.09-.21,0-.38-.06-.2,0l-.25-.05c.14,0,.06,0,.3.09-.25-.05,0,.07-.37-.06a1.75,1.75,0,0,1,.34.14c-.49-.2,0,0-.57-.19.43.19.19.11.41.25l-.08-.05a1.19,1.19,0,0,1-.25-.11,3.7,3.7,0,0,1,.59.42c-.32-.19-.37-.27-.68-.46.27.17.25.2.47.34a3.06,3.06,0,0,1-.37-.24c.39.3.06.06.29.26-.2-.13-.36-.29-.26-.18A2.63,2.63,0,0,1,110.36,57.08Zm-.07,1h0v0Zm-.07,0h0a.71.71,0,0,1,0,.19A1.07,1.07,0,0,0,110.22,58.14Zm.91,1.74s0,0-.06-.06l0,0v0Z" transform="translate(-40.96 -18.9)"/><path class="cls-2" d="M111,59.52v0l0,0,0,.08Z" transform="translate(-40.96 -18.9)"/><path class="cls-2" d="M111.05,55h0v0Z" transform="translate(-40.96 -18.9)"/><polygon class="cls-2" points="68.24 38.79 68.22 38.86 68.24 38.8 68.24 38.79"/><path class="cls-2" d="M111,56.07l0,0Z" transform="translate(-40.96 -18.9)"/><path class="cls-2" d="M111.07,56.24l0,.09S111.07,56.26,111.07,56.24Z" transform="translate(-40.96 -18.9)"/><path class="cls-2" d="M111.05,56.43l.1-.07h0Z" transform="translate(-40.96 -18.9)"/><path class="cls-2" d="M109.07,56.13h0Z" transform="translate(-40.96 -18.9)"/><path class="cls-2" d="M109.73,55.43l0,.13S109.71,55.59,109.73,55.43Z" transform="translate(-40.96 -18.9)"/><polygon class="cls-2" points="67.72 37.74 67.72 37.74 67.71 37.74 67.72 37.74"/><path class="cls-2" d="M109.66,55.56s0,0,0,0S109.67,55.52,109.66,55.56Z" transform="translate(-40.96 -18.9)"/><path class="cls-2" d="M111.11,56.89h0Z" transform="translate(-40.96 -18.9)"/><path class="cls-2" d="M111.15,56.89h0Z" transform="translate(-40.96 -18.9)"/><path class="cls-2" d="M111.25,56.89h0Z" transform="translate(-40.96 -18.9)"/><path class="cls-2" d="M111.21,56.73l-.1,0Z" transform="translate(-40.96 -18.9)"/><path class="cls-2" d="M111.17,56.7s-.2.1-.14.09l.08,0C111,56.81,111.33,56.66,111.17,56.7Z" transform="translate(-40.96 -18.9)"/><path class="cls-2" d="M112.17,55.89l0,.11c.09-.06.2-.15.25-.13C112.61,55.61,112.19,56,112.17,55.89Z" transform="translate(-40.96 -18.9)"/><path class="cls-2" d="M112.15,55.58c.07,0,.13-.09.18-.13A.25.25,0,0,0,112.15,55.58Z" transform="translate(-40.96 -18.9)"/><path class="cls-2" d="M110.63,54.53l.08-.24S110.68,54.39,110.63,54.53Z" transform="translate(-40.96 -18.9)"/><polygon class="cls-2" points="69.05 36.84 69.04 36.99 69.1 36.77 69.05 36.84"/><polygon class="cls-2" points="69.21 35.01 69.23 34.98 69.16 35.06 69.21 35.01"/><path class="cls-2" d="M107,54.86l.21.23C107.17,55,106.94,54.75,107,54.86Z" transform="translate(-40.96 -18.9)"/><path class="cls-2" d="M106.37,56.32c-.15,0-.27,0-.12.06S106.41,56.35,106.37,56.32Z" transform="translate(-40.96 -18.9)"/><polygon class="cls-2" points="67.43 41.2 67.37 41.29 67.45 41.22 67.43 41.2"/><path class="cls-4" d="M93.77,81.63,79.63,74.38a1.12,1.12,0,0,0-1,0l-14,7.54A1.11,1.11,0,0,1,63,80.77l2.52-15.69a1.12,1.12,0,0,0-.33-1l-11.49-11a1.11,1.11,0,0,1,.6-1.91L70,48.76a1.07,1.07,0,0,0,.83-.62l6.89-14.32a1.12,1.12,0,0,1,2,0L86.87,48a1.11,1.11,0,0,0,.85.6l15.75,2.13a1.12,1.12,0,0,1,.64,1.9L92.84,63.81a1.11,1.11,0,0,0-.31,1l2.84,15.64A1.11,1.11,0,0,1,93.77,81.63Z" transform="translate(-40.96 -18.9)"/><path class="cls-5" d="M94.07,81a.13.13,0,0,0,0,.26,1.4,1.4,0,0,0,.15-.3A.43.43,0,0,1,94.07,81Z" transform="translate(-40.96 -18.9)"/><path class="cls-5" d="M95.21,81.15a.48.48,0,0,0-.62-.48.33.33,0,0,1,.22.19c0,.07.07.14.13.35-.12.19-.33.13-.36,0,0,.11-.22,0-.29.22.23.29.78,0,.73-.4C95.12,81,95.17,81.1,95.21,81.15Z" transform="translate(-40.96 -18.9)"/><path class="cls-5" d="M98.36,59l-.14.09A.42.42,0,0,0,98.36,59Z" transform="translate(-40.96 -18.9)"/><path class="cls-5" d="M99.11,49.47c.12,0,.17,0,.18,0S99.09,49.44,99.11,49.47Z" transform="translate(-40.96 -18.9)"/><path class="cls-5" d="M96.53,48.75l.15,0C96.63,48.76,96.57,48.73,96.53,48.75Z" transform="translate(-40.96 -18.9)"/><path class="cls-5" d="M98.36,59l.37-.22C98.68,58.65,98.52,58.84,98.36,59Z" transform="translate(-40.96 -18.9)"/><path class="cls-5" d="M94.05,77.94a.77.77,0,0,0,.13.2l-.07-.2Z" transform="translate(-40.96 -18.9)"/><path class="cls-5" d="M93.7,64l-.09.09a.45.45,0,0,0,0,.16Z" transform="translate(-40.96 -18.9)"/><path class="cls-5" d="M94,68.29c0-.12-.29-.11-.42-.13a.36.36,0,0,1,.23.22A.36.36,0,0,0,94,68.29Z" transform="translate(-40.96 -18.9)"/><path class="cls-5" d="M95,76.58l.07.13Z" transform="translate(-40.96 -18.9)"/><path class="cls-5" d="M96.41,61.38a.26.26,0,0,0,.1,0A.12.12,0,0,0,96.41,61.38Z" transform="translate(-40.96 -18.9)"/><path class="cls-5" d="M89,77.68s0,0,0,0S89,77.7,89,77.68Z" transform="translate(-40.96 -18.9)"/><path class="cls-5" d="M93.73,81.7l-.08,0-.09.13Z" transform="translate(-40.96 -18.9)"/><path class="cls-5" d="M91.77,47.75h0Z" transform="translate(-40.96 -18.9)"/><path class="cls-5" d="M65.63,48.26c.53.17-.76.45,0,.61C65.57,48.77,66.27,48.33,65.63,48.26Z" transform="translate(-40.96 -18.9)"/><path class="cls-5" d="M94.07,77.8l0-.21A.56.56,0,0,0,94.07,77.8Z" transform="translate(-40.96 -18.9)"/><path class="cls-5" d="M65.66,48.87Z" transform="translate(-40.96 -18.9)"/><path class="cls-5" d="M85.14,41.91a.38.38,0,0,0,0,.16A.26.26,0,0,0,85.14,41.91Z" transform="translate(-40.96 -18.9)"/><path class="cls-5" d="M88.87,47.93l-.2-.07A.69.69,0,0,0,88.87,47.93Z" transform="translate(-40.96 -18.9)"/><path class="cls-5" d="M82.84,38.23a.52.52,0,0,0-.12-.28.11.11,0,0,0,0,.06A.26.26,0,0,1,82.84,38.23Z" transform="translate(-40.96 -18.9)"/><path class="cls-5" d="M80.77,34.15a.71.71,0,0,0,0,.14l.09.14S80.81,34.25,80.77,34.15Z" transform="translate(-40.96 -18.9)"/><path class="cls-5" d="M75.56,74.68a.87.87,0,0,1,.31.12C75.71,74.66,76.26,74.28,75.56,74.68Z" transform="translate(-40.96 -18.9)"/><path class="cls-5" d="M94.21,77.91a.18.18,0,0,1-.14-.11l0,.14A.09.09,0,0,0,94.21,77.91Z" transform="translate(-40.96 -18.9)"/><path class="cls-5" d="M80.78,39.07l-.29-.66A5.82,5.82,0,0,0,80.78,39.07Z" transform="translate(-40.96 -18.9)"/><path class="cls-5" d="M66.33,63.75a1.88,1.88,0,0,1,.16.23A.5.5,0,0,0,66.33,63.75Z" transform="translate(-40.96 -18.9)"/><path class="cls-5" d="M79.49,36.54a1,1,0,0,0,0-.45.25.25,0,0,0-.11,0Z" transform="translate(-40.96 -18.9)"/><path class="cls-5" d="M75.87,74.8Z" transform="translate(-40.96 -18.9)"/><path class="cls-5" d="M81.28,73.44c-.6-.32-.45.17-.67.29l-.27-.11a1.29,1.29,0,0,1-.2-.15c-.22-.2.1-.3-.19-.56a2.76,2.76,0,0,0-2.11.68s-.12,0-.08-.14c-.34.52-1.4.77-1.78,1.39a.16.16,0,0,1-.11,0,.82.82,0,0,1,.32.4c-.26.15-.39.48-.6.32.17-.08.13-.18.18-.29l-.24.25c-.41-.17.33-.31.21-.54a6.1,6.1,0,0,1-1.47,1.13c-.25-.25.93-.63.23-.59l.71-.24c-.75-.2.41-.18-.32-.44-.9.38-.87.67-1.77,1-.11.27.19.21.09.48-1.06,1-1.36-.24-2,.64-.13.33,0,.75-.76.9l0-.46c-.85.41-.21.74-1.21,1,.09-.21.6-.46.45-.43-.71,0-.3.4-.73.64l-.25-.25c-.86.52-1.71,1.26-2.66,1.84,0-.12.12-.3-.16-.27a7.39,7.39,0,0,1-.66.42,2.14,2.14,0,0,1-.4.21c-.13.06-.27.08-.36,0a.32.32,0,0,1,0-.36.51.51,0,0,1-.3,0s.15-.09.2-.07-.19,0-.29,0,.18-.12.27-.06,0,0,0-.08l0-.2v-.45c0-.31,0-.65,0-1a4.93,4.93,0,0,1,.4-1.8l0,.21c.24-.74-.46-1-.07-1.61l0,.15c.39-1.62.41-3.47,1.05-4.65-.38-.3.45-1.58-.12-1.78a7.4,7.4,0,0,0,.91-1.89c.08-.35-.28-.58-.27-1l.3,0-.1-.29,0-.14,0-.22,0-.09a2.29,2.29,0,0,0,.38-.54,2.28,2.28,0,0,0-.26-.67c.1.27,0,.6-.06.58a3.92,3.92,0,0,0-.77-1.4c-.16-.28-.24-.54-.19-.6l-1.29-.87c.11-.06.33.08.53.16-.81-.33.12-.33-.62-.64,0,.12-.17.1-.22.13A4,4,0,0,0,62.61,60l.23-.07c-.78-.82-1.79-1.58-2.71-2.46.26.39-.07.58-.36.35l.12-.34c-.31,0,.19.36-.33.2-.32-.36,0-.49.29-.38L59.36,57c0-.1.17,0,.29-.11-.32,0-.5-.92-1-.9l.05-.09c-.92-.88-1.41-1.2-2.17-1.9-.21.19-.46-.14-.84-.18a4,4,0,0,1-.63-.9c0-.1-.07-.16-.1-.25-.21-.2-.34-.09-.56-.25.33,0,.46-.22.6,0,.06-.13.16-.15.24-.2l.18-.09.82-.26c-.17-.08-.34-.1-.27-.2.24-.08.58,0,.57.15l-.07,0c1.49-.62,3.67.18,4.82-.54l-.07,0,1.23-.47c.6-.05-.32.24.14.33,1.31-.64,2.18-.28,3.26-.73a2.92,2.92,0,0,0,2,0L69,50.25l.55-.06h.9L70.28,50c.47-.3.67-.12,1.06-.32-.13-.06-.6.18-.36-.07a2.6,2.6,0,0,0,1-1.29c.14-.3.29-.6.44-.9.31-.6.64-1.19,1-1.78.69-1.17,1.43-2.33,2.08-3.51.47-.86-.59-.9.33-1.83l.15.46c.5-1.95,1.76-3.64,2.3-5.53,0,.13.11.18,0,.35a1.2,1.2,0,0,0,.24-.28s0,0,0-.08a2.36,2.36,0,0,0-.11-.36c.07,0,.11.18.18.27s0,0,.08-.13.11-.16.1,0a.35.35,0,0,1,0,.12c.08-.16.11.14.24-.18a.33.33,0,0,0,.12.25,2.63,2.63,0,0,1,.4.85c.44.2.43,1.18.87,1.09-.43.15.25,1.3.65,1.61-.19-.07,0,.42-.2.35.24.46.54.86.7.67,0,1.11,1.27,1.54.9,2.34.92,1.28,1.72,2.49,2.44,3.69-.42.16-.74-1.36-1.13-1.09a13.46,13.46,0,0,1,2,2.84c.1.33-.27-.09-.39-.16.11.15.2.31.3.46l.13.23.17.31a2.2,2.2,0,0,0,1.77,1.23l.4.05.33,0q.33,0,.66,0s-.14.07-.27.09c.24,0,.53.13.53-.07l-.23,0c-.33-.34,1-.49,1.06-.64-.47.53,1.14.3.42.95.16,0,.36-.08.34-.23.22.07.28.16,0,.29.85,0,.58-.26,1.33-.15,0,.1-.17.11-.26.22a2.14,2.14,0,0,1,1.43-.11c-.05,0,0,.14-.17.11,1.09.12,1.92-.26,3.09.09-.41.38.39.19.4.57l.66,0-.24-.22c.57.09,1.1-.12,1.57.07l-.44.1,1.06.07-.58-.22c.6-.12,0-.48.74-.28-.16,0,.56.08.83.34h0a1.54,1.54,0,0,1,1,0c.1.14-.14.4-.08.49.3-.26,1.26.06,1.53-.17l.07,0a.19.19,0,0,0-.09.09.39.39,0,0,0-.11.2l0,0a2.93,2.93,0,0,1,.26-.19c.15.1.13.13,0,.27a.25.25,0,0,0,.34-.13c0-.08.14-.2.32.09-.06,0-.09,0-.21,0a1.11,1.11,0,0,1,.38.81c0,.32-.27.54-.53.73-.43-.1.24-.37-.2-.38l-.12.18c-.06.07,0,.09-.17.25l-.58.78a9.46,9.46,0,0,1-1.25,1.41l.19-.13c.26.49-.82.45-1.08,1.06.08-.14-.07-.35,0-.28A13.68,13.68,0,0,0,98.09,58v-.21c-.43.26-1,.86-1.38,1.19,0,.2-.24.4,0,.41-1.7.6-1.9,2.48-3.38,3,.12-.13.21-.38.11-.28l-.78,1c.23.1.21,0,.52-.06a1.43,1.43,0,0,1-.4.74c.31-.51-.3-.28-.6,0,.08,0,.1.11.18.12-.38.26-.25.38-.14.46s.21.19.16.65l-.13,0a3.69,3.69,0,0,1,.36.95c-.23.2-.18-.32-.4-.3.1.49.67.87.49,1.36-.11-.19-.17-.49-.28-.68a1.38,1.38,0,0,0-.11.94V68l0-.23c.8.49.35,1.22.95,2-.57-.72-.27-.08-.58-.09,0,.22-.08.56-.18.48.31.35-.07.69.38,1.17-.09,0,.07.42-.19.38.17.49.15-.15.28-.13.47.72-.07,1.9.59,2.94.36.94.71,1,1,1.92-.1.33-.4-.18-.4-.18a2.37,2.37,0,0,0,.24,1.32c-.1-.08-.16,0-.24.19.09.36.4.18.34.69a1.35,1.35,0,0,1-.45-.3c.17.42.43.82.59,1.26-.14.15-.3-.23-.44-.37.17.49.39,1.29.69,1.39l0-.34c0,.18-.21.14-.28,0-.29-.4,0-.64.07-.68l.12.31c.5-.44-.33-1.28-.41-1.93L95,78l-.46-.61c.08-.16.29-.29.41,0,.12-.5-.22-.38-.07-.82,0,0,0,0,.07,0l-.2-.43c.1.07.28-.13.27.16.08-.86-.55-1.26-.29-1.62l0,.06c-.34-1.1-.32,0-.82-.83l.63-.71-.32,0c0-.12,0-.35.1-.33-.28-.4-.12.09-.36-.12.18-.61-.4-1.52,0-1.74-.26-.15-.08.57-.34,0,.48-.26-.22-.67-.08-1.23.3.11.25.62.39.07-.51-.23-.08-1-.25-1.43-.36,0-.32-.91-.57-1.61.07,0,0-.34,0-.78l0-.69,0-.34a.9.9,0,0,1,0-.18h.06A.34.34,0,0,1,93,64.4a1.12,1.12,0,0,1,.3-.54.47.47,0,0,1,.14.44l.21-.22a.88.88,0,0,1,.26-.57l.1.28c.45-.46.69-1.14,1.41-1.59-.15-.22-1,0-.47-.78.12.07.31.22.19.42,0-.07.11-.27.25-.33l-.08.41c.34-.2,0-.28.23-.48.14.15.26,0,.34.09s-.24.12-.27.26a1.71,1.71,0,0,1,.84-.41c-.1-.06-.19-.19,0-.38.45-.47.32,0,.66-.18,0-.21.41-.4.21-.61.13-.14.25-.06.36-.06.14-.32,1.08-1.12.59-1.08l-.08,0,0,0h0c.57-1,1.73-1.48,2.4-2.33l.07.07a9.29,9.29,0,0,0,1.15-1.54c.14-.13.45-.19.47-.05a2.19,2.19,0,0,1,.88-.9c-.23.47.23,0-.27.44.53-.4.71-.36,1.05-1.08-.09.43.81-.31,1-.7a4.89,4.89,0,0,1-.6.41,4.31,4.31,0,0,0,.73-1,3.07,3.07,0,0,1,.26.25,1.59,1.59,0,0,0-.25-2,3.28,3.28,0,0,0-1.71-.71,2.22,2.22,0,0,1-.78-.32c-.09,0-.1.09-.05.12s.13.08.28.12.5.16.24.27a2.57,2.57,0,0,1-1-.41,2.16,2.16,0,0,0-.52-.32c-.79-.29-.83.38-1.67.14.1.13.16.46-.5.48s-.67-.59-.28-.63c.15,0,.21.05.2.09.2,0,.46,0,.24-.19l-.09.11c-.28-.16-1.11-.26-.89-.43-.47.05-.22.17.11.27-.75-.27-1.2-.16-2-.38.12.08.22.23.09.21-1.14-.3-.54.16-1.33.1-.43-.24.21-.4-.6-.36-.46-.19-.06-.33.15-.4-.75.13-1.33-.33-1.74-.42l.4,0a2.41,2.41,0,0,1-.61,0l.18.26c-.21-.07-.4-.1-.39-.2-.25.13.13.42-.36.57-.28-.16-.92,0-1-.32.92.23-.06-.33.74-.27a1.48,1.48,0,0,1-.56-.08s0-.06.1-.07c-.86-.4-.46.29-1.39.16.15-.16-.17-.36-.32-.34.37,0,.14.31-.22.4-.58-.21-.66,0-1,0l.34.11c-.14.16-.43.1-.86.1,0-.14.39,0,.25-.13a.64.64,0,0,1-.66-.1c-.14-.12-.2-.27-.37-.32,0-.2.25-.24.28-.36h0l-.07-.09a1.4,1.4,0,0,1-.09-.17,1.25,1.25,0,0,1-.07-.31,1.26,1.26,0,0,0-.32-.72c-.11.31,0,.31-.49-.06l.71,1-.67-.56c.17.34.49.65.56.87-.35-.26-.28-.25-.37,0,.09-.62-.65-.82-.7-1.46l.53-.25c-.17-.92-1-1.29-1.39-2.4l.08.38c-.28,0-.35-.63-.61-.92.19-.06.15-.3.19-.5-.13.08-.38-.77-.78-.69V40.8c-.33-.89-1-.71-1.34-1.55.32.15.25-.28.67.19-.14-.27-.23-.53-.35-.47,0-.22-.62-.63-.58-1-.13-.08-.34,0-.48-.33,0,0,.09,0,.09,0s-.36-.41-.42-.05c.12-1.12-1.2-2.28-1.12-3.29A6.13,6.13,0,0,0,80,33.11a1.7,1.7,0,0,0-1.12-.51c.06-.06,0-.1.16-.06a.63.63,0,0,0-.84.25,3.15,3.15,0,0,1-.63.71c-.24.08-.2-.08-.1-.23s.27-.29.1-.22c-.21-.26-.48,0-.68.54-.11.26-.19.54-.31.79a1,1,0,0,1-.33.43l0-.16c-.41.34-.29,1.17-.68,1.87,0,0,0-.06-.08-.05A6.83,6.83,0,0,1,75,38.8c-.13-.33,0-.37-.27-.35-.11.32.42.09.19.73-.22.14-.54.53-.82.47l.26-.59c-.46.15-.34.76-.55,1L73.65,40c-.38.91,0,1.09-.52,2l.16,0c.1.69-.41.34-.4,1h-.43A16.29,16.29,0,0,1,72,45a7.5,7.5,0,0,1,.18-1.79,3.38,3.38,0,0,0-.44,1.44c0-.16,0-.37.15-.48A3.23,3.23,0,0,1,71.49,46c-.31-.23-.57.19-.84.7a7.78,7.78,0,0,1-.44.75c-.14.21-.21.19-.37.14a.26.26,0,0,1-.23.23l-.3,0-.39,0-.79,0a14.57,14.57,0,0,0-1.68.18c.63.51-.45.09-.26.68-.35.09-.49.1-.53.07l-1.14-.19c-.28-.14.32-.19.27-.32-.79.08-.37-.2-.92-.28.14.2-.22.35-.68.33l.67.19c-1,.49-1-.36-2.07.13l.32-.25c-.55.2-2.09.32-2.57.89-.11,0-.27-.19,0-.28-1.36.14-2.93,1-4,.85l.08-.16c-.27.09-.29.33-.92.27,0-.06.13-.17-.07-.14s-.39.14-.66.26l-.75.39a2.62,2.62,0,0,1,.24-.34,1.83,1.83,0,0,0-1.18,1.93,2.53,2.53,0,0,0,1.13,1.7l.22.17c-.1.06-.1.18,0,.35a2.29,2.29,0,0,0,.14.27,1.07,1.07,0,0,0,.1.22,7.66,7.66,0,0,0,.58.82l-.05,0a24,24,0,0,0,3.32,2.43c.32,1,2.05,2.23,2.9,3.42-.1-.21.27-.22.48-.08.18.3.89.42.57.68l-.08-.09c-.09.46.48.86.87,1.25l.42-.33a3.44,3.44,0,0,0,1.15,1.49,4.73,4.73,0,0,0,.46.35.29.29,0,0,1,.07.3,2.07,2.07,0,0,1-.12.35.81.81,0,0,1-.23.31c.08.36,0,.77.08,1.13l-.27-.06a15.77,15.77,0,0,0-.45,2.54l-.17-.26c-.12.64.68,1,.6,1.55l-.45.11c-.17,1.14-.73,2.23-.53,3.41a.23.23,0,0,1-.16-.26c-.1.53-.61,2,0,1.92-.38-.05-.23,1.16-.16,1.8l-.26-.14a2.07,2.07,0,0,1,.34,1.35c-.06.16-.24.11-.14-.1a.61.61,0,0,0,0,.53c0,.16.1.22-.06.72,0-.11-.08-.24-.12-.38-.16.87-.06.83.13,1.17a7,7,0,0,0,.12.86c.08.32.22.59.18.73a2.68,2.68,0,0,1,1,.18c0,.11-.15.13-.25.13a1.6,1.6,0,0,0,1.65-.35,3.59,3.59,0,0,1,.5-.33,1,1,0,0,1,.46-.15.2.2,0,0,0,.18.09l-1.11.58a1.64,1.64,0,0,1-.51.19c0,.13.21.15.37.17s.25.11-.16.47c.12-.07.26-.19.41-.29l.61-.51c.12-.1.16-.16.22-.21l.17-.17a2,2,0,0,1,.74-.49.19.19,0,0,1,.11,0l0,0a.68.68,0,0,0,.32-.22,2.36,2.36,0,0,0,.49-.18c.17.15.7-.24,1-.39-.16-.23.23-.39-.22-.41.05,0,0,.06-.22.17a.53.53,0,0,0-.11.09v0l-.69.39a.9.9,0,0,1,.71-.5,5.43,5.43,0,0,1,.18-.61c.57.13,1.41-.08,1.63.08.78-.6,2-1.18,2.25-1.93.21-.19.35,0,.48,0-.11.13-.28.21-.32.32.42-.38,1.41-.83,1.35-1.21.7-.19-.18.48.63,0l-.06.16a4.07,4.07,0,0,0,2.13-1.32,6.3,6.3,0,0,1,1-.79,3.15,3.15,0,0,1,.61-.3,2.89,2.89,0,0,1,.35-.11.76.76,0,0,1,.26,0c-.1,0-.15,0-.19-.06a.9.9,0,0,1,.83.09c1.64.88,3.67,1.53,5.15,2.77.55.4.72.23,1.17.25v.34h.77c1,.22,1.19,1.44,2.52,1.58l0-.26c.38.24,1.32.54,1.15.72.05,0,.22-.12.33,0l-.06.15,1.11.26c.71.49-.41.5.69,1.09.44.16,1.38.2,1.28,0s-.38-.3-.32-.45l.41.12c.28-.38.79-.65,0-1.42l-.77-.08-.11-.3.55.26c-.21-.34-.49-.28-.77-.27a.46.46,0,0,0-.16-.36l-.83.07c0-.21.45-.18.07-.49-.39,0,.1.51-.46.38-.21-.35,0-.45-.49-.48,0-.13.12-.16.29-.13-.39,0-.89-.39-1.17-.25-.2-.4-1.12-.5-.88-.88a2.09,2.09,0,0,1-1-.12c.78-.19-1.1-.59-.7-1-.62.21-1.54-.56-2.37-.69,0,0,.17,0,.22,0-.38-.24-.43-.43-.65-.64-.23.32-.89.08-1.34.12-.32-.58.51-.25.52-.66-.12.3-1-.15-1,.17-.27-.4-.27-.27-.31-.65-.29.4-.39-.11-.84,0-.43-.49.07-.48-.59-.65C80.67,73.32,81.28,73.44,81.28,73.44ZM66.09,80.27h0l.28-.17ZM65,80.86l.14-.07.27-.14c.09.06.09.17,0,.23S65.1,80.91,65,80.86Zm3.31.43c-.17.13-.26.12-.31.08l.31-.21v0A.33.33,0,0,1,68.33,81.29Z" transform="translate(-40.96 -18.9)"/><path class="cls-5" d="M68.49,80.78a.22.22,0,0,1,.07-.06h-.15l0,.11Z" transform="translate(-40.96 -18.9)"/><path class="cls-5" d="M98.2,59.07h0Z" transform="translate(-40.96 -18.9)"/><polygon class="cls-5" points="25.69 47.04 25.62 47.03 25.66 47.16 25.69 47.04"/><path class="cls-5" d="M92.22,63.73a.17.17,0,0,0-.13.08S92.15,63.77,92.22,63.73Z" transform="translate(-40.96 -18.9)"/><path class="cls-5" d="M92.35,67.2l0,.46A4.21,4.21,0,0,0,92.35,67.2Z" transform="translate(-40.96 -18.9)"/><path class="cls-5" d="M92.65,69.63a.21.21,0,0,0,.12,0h0Z" transform="translate(-40.96 -18.9)"/><path class="cls-5" d="M88.78,49.82h-.09C88.46,49.84,88.61,49.84,88.78,49.82Z" transform="translate(-40.96 -18.9)"/><path class="cls-5" d="M100.34,50.71a1.72,1.72,0,0,1-.38.08C100.16,50.84,100.32,50.87,100.34,50.71Z" transform="translate(-40.96 -18.9)"/><polygon class="cls-5" points="39.84 20.24 39.85 20.24 39.81 20.17 39.84 20.24"/><path class="cls-5" d="M99.42,50.72a1.05,1.05,0,0,0,.54.07A1.64,1.64,0,0,0,99.42,50.72Z" transform="translate(-40.96 -18.9)"/><path class="cls-5" d="M94.42,80.09v.12h0Z" transform="translate(-40.96 -18.9)"/><path class="cls-5" d="M94.48,80.21l0,.13C94.52,80.28,94.51,80.23,94.48,80.21Z" transform="translate(-40.96 -18.9)"/><path class="cls-5" d="M94.65,80.58l-.12-.24C94.55,80.42,94.57,80.56,94.65,80.58Z" transform="translate(-40.96 -18.9)"/><path class="cls-5" d="M94,76.88l-.11,0S93.92,76.88,94,76.88Z" transform="translate(-40.96 -18.9)"/><path class="cls-5" d="M93.76,75.92a2.68,2.68,0,0,0,0,.93h.08C93.68,76.74,94,76.1,93.76,75.92Z" transform="translate(-40.96 -18.9)"/><path class="cls-5" d="M94.27,71.65l.06.82c.08-.16.19-.37.29,0C94.75,71.38,94.42,72.72,94.27,71.65Z" transform="translate(-40.96 -18.9)"/><path class="cls-5" d="M94,69.1c.13.43.16,0,.22,0C94,68.82,94,68.76,94,69.1Z" transform="translate(-40.96 -18.9)"/><path class="cls-5" d="M102.45,55.16l.15.21C102.81,55.11,102.53,55.3,102.45,55.16Z" transform="translate(-40.96 -18.9)"/><path class="cls-5" d="M103.49,52.15a1.28,1.28,0,0,1-.28.15l.23.11A.58.58,0,0,0,103.49,52.15Z" transform="translate(-40.96 -18.9)"/><path class="cls-5" d="M104,49.69l.23.05a3.34,3.34,0,0,0-.81-.14h0A3.52,3.52,0,0,1,104,49.69Z" transform="translate(-40.96 -18.9)"/><path class="cls-5" d="M81.39,34.82l-.24.23C81.31,35.23,81.64,35.11,81.39,34.82Z" transform="translate(-40.96 -18.9)"/><path class="cls-5" d="M73,41.84a.65.65,0,0,0-.42.63C72.76,42.21,73,42,73,41.84Z" transform="translate(-40.96 -18.9)"/><polygon class="cls-5" points="22.03 44.84 21.77 44.73 22.19 45.02 22.03 44.84"/><text class="cls-6" transform="translate(28.22 69.8)"><tspan class="cls-7">1</tspan><tspan class="cls-8" x="3.44" y="0">9</tspan><tspan x="9.16" y="0">36</tspan></text><text class="cls-9" transform="matrix(0.51, -0.86, 0.86, 0.51, 9.22, 29.09)"></text><text class="cls-9" transform="matrix(0.61, -0.79, 0.79, 0.61, 12.39, 23.93)">.</text><text class="cls-9" transform="translate(13.45 22.41) rotate(-45.94)"></text><text class="cls-9" transform="matrix(0.77, -0.64, 0.64, 0.77, 17.01, 18.85)"> </text><text class="cls-9" transform="matrix(0.84, -0.54, 0.54, 0.84, 18.32, 17.57)"></text><text class="cls-9" transform="translate(23.39 14.38) rotate(-22.27)"></text><text class="cls-9" transform="translate(28.01 12.49) rotate(-13.27)"></text><text class="cls-9" transform="translate(32.57 11.4) rotate(-4.62)"></text><text class="cls-9" transform="translate(37.24 11.01) rotate(3.85)"></text><text class="cls-9" transform="matrix(0.97, 0.24, -0.24, 0.97, 41.84, 11.24)"></text><text class="cls-9" transform="translate(47.66 12.67) rotate(23.8)"></text><text class="cls-9" transform="matrix(0.86, 0.5, -0.5, 0.86, 52.25, 14.78)"> </text><text class="cls-9" transform="matrix(0.83, 0.56, -0.56, 0.83, 53.89, 15.72)"></text><text class="cls-9" transform="translate(56.03 17.09) rotate(41.03)"></text><text class="cls-9" transform="matrix(0.65, 0.76, -0.76, 0.65, 59.58, 20.16)"></text><text class="cls-9" transform="translate(62.66 23.67) rotate(59.41)"></text><text class="cls-9" transform="translate(65.69 28.85) rotate(69.58)"></text></svg>